{"title":"Faster-AC3-XviD-Multisubs-DVDRip 2010 TBS","uid":6164818,"size":1464765862,"categoryP":"video","categoryS":"movies","magnet":"?xt=urn:btih:3bf7f8102e3780f59a3df2f44f524eba7144ed38&amp;dn=Faster-AC3-XviD-Multisubs-DVDRip+2010+TBS&amp;tr=udp%3A%2F%2Ftracker.openbittorrent.com%3A80&amp;tr=udp%3A%2F%2Fopen.demonii.com%3A1337&amp;tr=udp%3A%2F%2Ftracker.coppersurfer.tk%3A6969&amp;tr=udp%3A%2F%2Fexodus.desync.com%3A6969","seeders":0,"leechers":0,"uploader":"FatFreddy30","files":-1,"time":1297349418,"description":"An ex-con sets out to avenge his brother's death after they were double-crossed during a heist years ago. During his campaign, however, he's tracked by a veteran cop and an egocentric hit man..\n &lt;a href=&quot;\nhttp://www.imdb.com/title/tt1433108/&quot; rel=&quot;nofollow&quot; target=&quot;_NEW&quot;&gt;\nhttp://www.imdb.com/title/tt1433108/&lt;/a&gt;\n\nSubs: Arabic, Brazilian/Portuguese, Czech, Danish, Dutch, English, Farsi Persian, Finnish, Greek, Hebrew, Indonesian, Italian, Korean, Norwegian, Romanian, Serbian, Slovenian, Swedish and Turkish.\n\n\n'Faster' vertelt het verhaal van Driver (Dwayne Johnson), een man die net vrijkomt na een jarenlange gevangenisstraf. Hij zat vast omdat hij er tijdens een bankoverval in is geluisd. Daarnaast is zijn broer toen vermoord. Nu wil Driver maar ÃƒÂ©ÃƒÂ©n ding; zijn broer wreken.\n &lt;a href=&quot;\nhttp://www.moviemeter.nl/film/64601&quot; rel=&quot;nofollow&quot; target=&quot;_NEW&quot;&gt;\nhttp://www.moviemeter.nl/film/64601&lt;/a&gt;\n\nOndertitels: Arabisch, Braziliaans/Portugees, Deens, Engels, Fins, Grieks, Hebreews, Indonesisch, Italiaans, Koreaans, Nederlands, Noors, Roemeens, Servisch, Sloveens, Tjechisch, Turks en Zweeds.\n\nGeneral\nComplete name                    : Faster-AC3-XviD-Multisubs-DVDRip 2010 TBS\\Faster-AC3-XviD-Multisubs-DVDRip 2010 TBS.avi\nFormat                           : AVI\nFormat/Info                      : Audio Video Interleave\nFile size                        : 1.36 GiB\nDuration                         : 1h 37mn\nOverall bit rate                 : 1 991 Kbps\nWriting application              : VirtualDubMod 1.5.4.1 (build 2178/release)\nWriting library                  : VirtualDubMod build 2178/release\nSource:                          : Faster DVDR-BOW\n\nVideo\nID                               : 0\nFormat                           : MPEG-4 Visual\nFormat profile                   : Simple@L3\nFormat settings, BVOP            : No\nFormat settings, QPel            : No\nFormat settings, GMC             : No warppoints\nFormat settings, Matrix          : Default (H.263)\nCodec ID                         : XVID\nCodec ID/Hint                    : XviD\nDuration                         : 1h 37mn\nBit rate                         : 1 534 Kbps\nWidth                            : 720 pixels\nHeight                           : 304 pixels\nDisplay aspect ratio             : 2.35:1\nFrame rate                       : 23.976 fps\nResolution                       : 8 bits\nColorimetry                      : 4:2:0\nScan type                        : Progressive\nBits/(Pixel*Frame)               : 0.292\nStream size                      : 1.05 GiB (77%)\nWriting library                  : XviD 1.1.2 (UTC 2006-11-01)\n\nAudio\nID                               : 1\nFormat                           : AC-3\nFormat/Info                      : Audio Coding 3\nCodec ID                         : 2000\nDuration                         : 1h 37mn\nBit rate mode                    : Constant\nBit rate                         : 448 Kbps\nChannel(s)                       : 6 channels\nChannel positions                : Front: L C R, Surround: L R, LFE\nSampling rate                    : 48.0 KHz\nStream size                      : 314 MiB (22%)\nAlignment                        : Split accross interleaves\nInterleave, duration             : 42 ms (1.00 video frame)\nInterleave, preload duration     : 500 ms\n\nThanks to Simply ReleaseS Team\n\nBlackbeard  TBS\n\n","torrent":{"xt":"urn:btih:3bf7f8102e3780f59a3df2f44f524eba7144ed38","amp;dn":"Faster-AC3-XviD-Multisubs-DVDRip+2010+TBS","amp;tr":["udp%3A%2F%2Ftracker.openbittorrent.com%3A80","udp%3A%2F%2Fopen.demonii.com%3A1337","udp%3A%2F%2Ftracker.coppersurfer.tk%3A6969","udp%3A%2F%2Fexodus.desync.com%3A6969"],"infoHash":"3bf7f8102e3780f59a3df2f44f524eba7144ed38","infoHashBuffer":{"type":"Buffer","data":[59,247,248,16,46,55,128,245,154,61,242,244,79,82,78,186,113,68,237,56]},"announce":[],"urlList":[]}}